STARTFONT 2.3
FONT -FontForge-Henny Penny-Book-R-Normal--14-140-72-72-P-79-ISO10646-1
SIZE 14 72 72  4
FONTBOUNDINGBOX 20 25 -2 -9
COMMENT "Generated by fontforge, http://fontforge.sourceforge.net"
COMMENT "Copyright (c) 2012, Brownfox (gayaneh.b@gmail.com), with Reserved Font Name "Henny Penny""
STARTPROPERTIES 40
FOUNDRY "FontForge"
FAMILY_NAME "Henny Penny"
WEIGHT_NAME "Book"
SLANT "R"
SETWIDTH_NAME "Normal"
ADD_STYLE_NAME ""
PIXEL_SIZE 14
POINT_SIZE 140
RESOLUTION_X 72
RESOLUTION_Y 72
SPACING "P"
AVERAGE_WIDTH 79
CHARSET_REGISTRY "ISO10646"
CHARSET_ENCODING "1"
FONTNAME_REGISTRY ""
CHARSET_COLLECTIONS "ISO10646-1"
BITS_PER_PIXEL 4
FONT_NAME "HennyPenny-Regular"
FACE_NAME "Henny Penny"
COPYRIGHT "Copyright (c) 2012, Brownfox (gayaneh.b@gmail.com), with Reserved Font Name "Henny Penny""
FONT_VERSION "1.001"
FONT_ASCENT 11
FONT_DESCENT 3
UNDERLINE_POSITION -1
UNDERLINE_THICKNESS 1
X_HEIGHT 8
CAP_HEIGHT 10
RAW_ASCENT 799
RAW_DESCENT 200
NORM_SPACE 4
RELATIVE_WEIGHT 40
RELATIVE_SETWIDTH 50
SUPERSCRIPT_X 0
SUPERSCRIPT_Y 4
SUPERSCRIPT_SIZE 8
SUBSCRIPT_X 0
SUBSCRIPT_Y 1
SUBSCRIPT_SIZE 8
AVG_LOWERCASE_WIDTH 70
AVG_UPPERCASE_WIDTH 99
ENDPROPERTIES
CHARS 233
STARTCHAR space
ENCODING 32
SWIDTH 270 0
DWIDTH 4 0
BBX 1 1 0 0
BITMAP
00
ENDCHAR
STARTCHAR exclam
ENCODING 33
SWIDTH 249 0
DWIDTH 3 0
BBX 3 14 0 -1
BITMAP
2E60
4FB0
2FB0
0FA0
0D90
0B80
0960
0840
0720
0700
0200
0000
2E50
1E50
ENDCHAR
STARTCHAR quotedbl
ENCODING 34
SWIDTH 292 0
DWIDTH 4 0
BBX 4 5 0 6
BITMAP
3985
3A95
2A94
0973
0550
ENDCHAR
STARTCHAR numbersign
ENCODING 35
SWIDTH 1030 0
DWIDTH 14 0
BBX 14 17 0 -5
BITMAP
00000000100000
00000006100000
00000007040000
00000034070000
02110080530000
14456BB6D44564
00000806400000
00001809000000
0000867A566300
199AD5C1000000
00075360000000
000C0910000000
00672900000000
00718200000000
0000A000000000
00055000000000
00020000000000
ENDCHAR
STARTCHAR dollar
ENCODING 36
SWIDTH 799 0
DWIDTH 11 0
BBX 9 16 1 -3
BITMAP
0000002000
0000033150
0007DFDD30
006F566E00
009F360800
006FC60200
001DFB0000
0003EF9000
00008EF400
040074FB00
080150BE00
0D3520AC00
4CD904E500
305EFC6000
0006000000
0013000000
ENDCHAR
STARTCHAR percent
ENCODING 37
SWIDTH 789 0
DWIDTH 11 0
BBX 11 13 0 0
BITMAP
05DE90001600
1F42E5009100
3F20A7064000
1F81C4380000
05DE81A00000
000009200000
000066000000
0002907DE900
000A15E22D70
008309A00A90
046007D22E60
190001AEE800
610000000000
ENDCHAR
STARTCHAR ampersand
ENCODING 38
SWIDTH 773 0
DWIDTH 11 0
BBX 11 13 0 -1
BITMAP
002BEB000000
00C41C300000
01C01C000000
01E1B5000000
00DE80008400
01ED003BF500
0BEF4331C400
4F79D100A100
7F41E9009000
7F704F853000
2EE517FC1140
03BEEB9FEC10
00000006D500
ENDCHAR
STARTCHAR quotesingle
ENCODING 39
SWIDTH 174 0
DWIDTH 2 0
BBX 2 4 0 7
BITMAP
39
3B
0A
05
ENDCHAR
STARTCHAR parenleft
ENCODING 40
SWIDTH 431 0
DWIDTH 6 0
BBX 6 20 0 -6
BITMAP
002400
00A000
057000
0B3000
2E0000
5C0000
9B0000
BA0000
CA0000
CA0000
BC0000
9E0000
6F3000
1F7000
0AD000
03F500
008C00
000B70
0001C3
000017
ENDCHAR
STARTCHAR parenright
ENCODING 41
SWIDTH 443 0
DWIDTH 6 0
BBX 7 15 0 -4
BITMAP
05100000
04D40000
003F5000
0008E200
0001F800
0000BD00
00008F10
00008F00
00009E00
0000C900
0003F300
000B8000
00990000
4A500000
10000000
ENDCHAR
STARTCHAR asterisk
ENCODING 42
SWIDTH 490 0
DWIDTH 7 0
BBX 7 6 0 7
BITMAP
00290000
001E0810
151A7900
29AB7000
0097B500
02604E00
ENDCHAR
STARTCHAR plus
ENCODING 43
SWIDTH 440 0
DWIDTH 6 0
BBX 6 9 0 0
BITMAP
000200
000600
000600
001821
3FEFC4
000800
000800
000800
000100
ENDCHAR
STARTCHAR comma
ENCODING 44
SWIDTH 251 0
DWIDTH 4 0
BBX 3 5 0 -3
BITMAP
2E80
3FC0
08A0
0540
0700
ENDCHAR
STARTCHAR hyphen
ENCODING 45
SWIDTH 436 0
DWIDTH 6 0
BBX 6 2 0 3
BITMAP
120010
2BEFD4
ENDCHAR
STARTCHAR period
ENCODING 46
SWIDTH 238 0
DWIDTH 3 0
BBX 3 2 0 0
BITMAP
2E70
2E70
ENDCHAR
STARTCHAR slash
ENCODING 47
SWIDTH 690 0
DWIDTH 10 0
BBX 10 13 0 0
BITMAP
0000000025
0000000090
0000000830
0000004700
000002A000
00000A1000
0000740000
0003800000
001A000000
0082000000
0550000000
1800000000
8100000000
ENDCHAR
STARTCHAR zero
ENCODING 48
SWIDTH 723 0
DWIDTH 10 0
BBX 10 10 0 1
BITMAP
005BEEB500
08E5016E80
4F400005F4
AD000000EB
CB000000BE
BD000000BE
9F100000CC
3F900002F7
07F9203DB0
004BEFC700
ENDCHAR
STARTCHAR one
ENCODING 49
SWIDTH 505 0
DWIDTH 7 0
BBX 7 13 0 -1
BITMAP
00080000
009D0000
2AFF1000
A44F3000
000F6000
000D8000
000BB000
0009E000
0008F300
0008FA00
003EFFB0
08D73100
04000000
ENDCHAR
STARTCHAR two
ENCODING 50
SWIDTH 534 0
DWIDTH 7 0
BBX 8 13 0 -1
BITMAP
05DEC400
3814EE10
70008F50
60007F50
40009E10
0000E700
0007B000
003B1000
04800000
5D200001
06DA4152
0019FF80
00005D10
ENDCHAR
STARTCHAR three
ENCODING 51
SWIDTH 511 0
DWIDTH 7 0
BBX 8 12 0 -1
BITMAP
24100000
5FFEE900
59107300
41015000
00070000
001BC400
00008F50
40000CE0
700009F2
91000AF1
3B315F90
03BEE800
ENDCHAR
STARTCHAR four
ENCODING 52
SWIDTH 712 0
DWIDTH 10 0
BBX 10 14 0 -2
BITMAP
0000031000
00001C0000
0000BC0000
00067E0000
00613F2000
08201F5000
9A000D9000
39C71BC000
0016DEF653
000007FFB0
000002F710
000001FB00
00003BEF81
0000000279
ENDCHAR
STARTCHAR five
ENCODING 53
SWIDTH 757 0
DWIDTH 11 0
BBX 11 14 0 -1
BITMAP
000000000010
000009B30260
000029DFBD20
0000601AFA00
000330005200
000A97100000
00026DF60000
510001CF3000
7000005F7000
7000004F8000
8000006F6000
910000CE1000
2C412AF50000
03BEEB400000
ENDCHAR
STARTCHAR six
ENCODING 54
SWIDTH 598 0
DWIDTH 8 0
BBX 9 11 0 0
BITMAP
005CEE8000
06F6117900
2F80000620
7F6BED7000
BFD314D800
CF50005E00
BF20001F30
8F20001F30
3F60005E00
08E513D600
006CFD5000
ENDCHAR
STARTCHAR seven
ENCODING 55
SWIDTH 507 0
DWIDTH 7 0
BBX 7 12 0 -1
BITMAP
31001360
EFFFFF80
B3148D10
70002500
40008000
00038000
000B3000
003D0000
00AA0000
01F90000
06F70000
02000000
ENDCHAR
STARTCHAR eight
ENCODING 56
SWIDTH 476 0
DWIDTH 7 0
BBX 7 12 0 -1
BITMAP
04CEB200
1EC13800
5F800600
4FD12400
0DFD6000
02FFE400
1B56DE10
94002E60
D0000980
D2000A60
8B315D10
08DFB300
ENDCHAR
STARTCHAR nine
ENCODING 57
SWIDTH 601 0
DWIDTH 8 0
BBX 9 11 0 0
BITMAP
04BEEA2000
4F613CE300
BB0002FB00
CA0000CF10
AD0000CF30
4FA215FF30
04CFEAFF20
000001FD00
000006F700
48215EB000
06DFD70000
ENDCHAR
STARTCHAR colon
ENCODING 58
SWIDTH 246 0
DWIDTH 3 0
BBX 3 7 0 0
BITMAP
2E70
2E70
0000
0000
0000
1D80
0D80
ENDCHAR
STARTCHAR semicolon
ENCODING 59
SWIDTH 266 0
DWIDTH 4 0
BBX 3 9 0 -3
BITMAP
0CC0
0CC0
0000
0000
0000
1EA0
1EC0
0760
1600
ENDCHAR
STARTCHAR less
ENCODING 60
SWIDTH 522 0
DWIDTH 7 0
BBX 7 7 0 1
BITMAP
00000320
00006600
00393000
19600000
18A20000
00189200
00002940
ENDCHAR
STARTCHAR equal
ENCODING 61
SWIDTH 655 0
DWIDTH 9 0
BBX 9 3 0 3
BITMAP
00258BDE60
1775421000
3FEEDCB500
ENDCHAR
STARTCHAR greater
ENCODING 62
SWIDTH 533 0
DWIDTH 7 0
BBX 7 8 0 0
BITMAP
16000000
02840000
00058200
00001A40
00002A20
00067000
01830000
01000000
ENDCHAR
STARTCHAR question
ENCODING 63
SWIDTH 564 0
DWIDTH 8 0
BBX 8 14 0 -1
BITMAP
02AEEB30
1D513DE1
7D0007F6
AF4006F7
AFD00AF3
4EB04F90
0004E700
005A2000
02600000
06200000
04E40000
00000000
00D60000
00C60000
ENDCHAR
STARTCHAR at
ENCODING 64
SWIDTH 898 0
DWIDTH 13 0
BBX 12 14 0 -4
BITMAP
00006CEEC600
001C93113A90
00B300000094
074000000019
0901AEDBF108
260BB13EF007
342F4008E007
435F2006E007
354F5008E008
171EC23AF365
0A03CFE27EA0
0580009D1000
00AA303F2000
0007DFD60000
ENDCHAR
STARTCHAR A
ENCODING 65
SWIDTH 784 0
DWIDTH 11 0
BBX 12 13 0 -2
BITMAP
00016C200000
009EFF700000
00008CD00000
000167F30000
000623F80000
000A20EE0000
003DECEF4000
00A304CFA000
03B0002FE100
EFC2000BF600
03850006FD20
00000006FFF2
000000983000
ENDCHAR
STARTCHAR B
ENCODING 66
SWIDTH 685 0
DWIDTH 10 0
BBX 10 15 0 -3
BITMAP
4679DFD500
05F704EF10
00D7009F30
00B8008E10
00A900B600
00AA385000
009FDEFB20
00AB004ED0
00AD0008F4
00AE0005F6
00AF1008F3
00CF614EB0
03FFFFD810
6720000000
1000000000
ENDCHAR
STARTCHAR C
ENCODING 67
SWIDTH 742 0
DWIDTH 10 0
BBX 11 13 0 -1
BITMAP
000000002300
000000005300
003AEFECE400
06FA3128F500
3FC000007800
9F6000000700
DF3000000000
EF3000000000
CF5000000230
AFA000000420
3FF300000900
06FE7113A400
0039DFEA3000
ENDCHAR
STARTCHAR D
ENCODING 68
SWIDTH 726 0
DWIDTH 10 0
BBX 10 12 0 -3
BITMAP
6A9BDEEB30
1AF8116FF3
02F40006FA
00F50001FD
00E60000FE
00D70002FB
00E90007F6
00EE315F90
02FFFEA400
0AE8300000
5A10000000
5000000000
ENDCHAR
STARTCHAR E
ENCODING 69
SWIDTH 557 0
DWIDTH 8 0
BBX 8 13 0 -2
BITMAP
55458BE0
3EF51060
0AF30000
07F30000
05F41300
03FEF300
01F65300
00E72200
00D80000
00C90005
00CB0039
AFFFDDF9
00123462
ENDCHAR
STARTCHAR F
ENCODING 70
SWIDTH 533 0
DWIDTH 7 0
BBX 8 12 0 -1
BITMAP
000037CA
6BDC2069
06FA0046
02FA0041
00EB0300
00CB3500
00AFF500
009C3500
007D0500
007D0000
01AF1000
8ECCE200
ENDCHAR
STARTCHAR G
ENCODING 71
SWIDTH 750 0
DWIDTH 11 0
BBX 11 10 0 0
BITMAP
000000000350
004AEEA21A00
07FA202AE700
4FA00001E100
BF4000008000
DF2000136A00
DF300DEFF600
9F800007F200
1EF7103BF400
019EFEA42200
ENDCHAR
STARTCHAR H
ENCODING 72
SWIDTH 743 0
DWIDTH 10 0
BBX 11 15 0 -3
BITMAP
351000000000
06FFF9000000
02F900025940
01F705FFF610
01F70009F200
01F70006F100
01F70018F100
01FFEEDEF000
01FA1007F000
02F80005F000
02F80003F000
03F80005F100
05F901FFFE20
8FFF20210100
310210000000
ENDCHAR
STARTCHAR I
ENCODING 73
SWIDTH 438 0
DWIDTH 6 0
BBX 8 14 -1 -3
BITMAP
2CCBBDEC
028FF810
001FE000
000FB000
000F9000
000F7000
000F5000
000F4000
000F3000
000F2000
001F2000
002F4000
03DFFC00
69510000
ENDCHAR
STARTCHAR J
ENCODING 74
SWIDTH 628 0
DWIDTH 9 0
BBX 10 17 0 -4
BITMAP
0000000001
00001259E5
000CFFFB10
00003FF300
00000BF200
000008F200
000007F100
000006F100
000006F000
000006E000
000007C000
000009A000
00000C6000
5ED12F2000
DFF2990000
C228D10000
4DEA200000
ENDCHAR
STARTCHAR K
ENCODING 75
SWIDTH 866 0
DWIDTH 12 0
BBX 13 13 0 -1
BITMAP
01255083000000
CFFC209FFF1000
09F50078100000
05F50470000000
04F54A00000000
03FAED00000000
02FA9F50000000
01F62EE1000910
00F605FB100450
00E7007FC41750
01E90004BEE900
0BFF7000000000
00027000000000
ENDCHAR
STARTCHAR L
ENCODING 76
SWIDTH 660 0
DWIDTH 9 0
BBX 9 11 0 0
BITMAP
4410000000
5BFFEF4000
00AFB10000
008F600000
008F500000
008F300000
007F200500
008F100430
009F301890
3BFFFFFFD0
2532100000
ENDCHAR
STARTCHAR M
ENCODING 77
SWIDTH 1089 0
DWIDTH 15 0
BBX 16 11 0 -1
BITMAP
000000000005FF50
00564200000DA200
002DCE20004F5000
00037CC0002E8000
000083F8020AB000
000080AF5307E000
0000602FD004F400
000050086001F900
000210000000EF40
CB1100000007FFF9
AE90000000462100
ENDCHAR
STARTCHAR N
ENCODING 78
SWIDTH 799 0
DWIDTH 11 0
BBX 12 14 0 -3
BITMAP
001100000131
EFFD200EEFC1
04FFD2008800
00ADFD103500
0082EFC13400
00704FFC6300
007006FFF300
0070008FF300
00700009F200
00700000A100
009000000000
06D000000000
CEFC30000000
001530000000
ENDCHAR
STARTCHAR O
ENCODING 79
SWIDTH 747 0
DWIDTH 10 0
BBX 11 10 0 0
BITMAP
005CEEC71000
09E5128FD100
5F500007FB00
BE000001EF20
ED000000BF50
DE000000AF50
BF200000BF20
5FA00001EB00
09F9203CD200
005BEFD81000
ENDCHAR
STARTCHAR P
ENCODING 80
SWIDTH 623 0
DWIDTH 9 0
BBX 9 12 0 -1
BITMAP
DFFFFFEA10
02CF816F80
006F200EA0
005F101F90
005F219F30
005FEFC400
006F100000
007F100000
008F200000
00AF300000
00DF700000
3BFFF94000
ENDCHAR
STARTCHAR Q
ENCODING 81
SWIDTH 804 0
DWIDTH 11 0
BBX 16 16 0 -6
BITMAP
0029DFEA30000000
05E6115DF8000000
2F600001CF500000
9E0000004FC00000
DB0000000DE00000
EB0000000BF00000
CE0002CE4AE00000
9F400823DDA00000
3FD107009F300000
06FD5605EF100000
003ADFD95F800000
000000000ED00000
000000000BF40004
0000000006FB0006
0000000001DF8146
00000000002BFD80
ENDCHAR
STARTCHAR R
ENCODING 82
SWIDTH 869 0
DWIDTH 12 0
BBX 13 11 0 -1
BITMAP
EFFFFFD6000000
17FF41AF200000
00EC005F600000
00CB007F400000
00AB16ED000000
008FFFD2000000
007B0DD0000000
007C07F5000040
00AF11ED100060
7FEFB13ED41550
00003202AEE800
ENDCHAR
STARTCHAR S
ENCODING 83
SWIDTH 517 0
DWIDTH 7 0
BBX 9 14 -1 -2
BITMAP
0000000300
0004CE5600
001E716B00
003F300700
002F700200
000AF30000
0001DE2000
00002EC100
110005F800
070000CF10
0A10008F40
0980007F40
09B712DC00
0503DEA200
ENDCHAR
STARTCHAR T
ENCODING 84
SWIDTH 659 0
DWIDTH 9 0
BBX 10 15 0 -3
BITMAP
AC73100000
9FFFFFFFF9
67000F3199
25001F3027
05002F3005
00003F3000
00004F3000
00005F3000
00005F3000
00006F3000
00007F4000
0000BFA100
0006FFFFA0
005C620000
0030000000
ENDCHAR
STARTCHAR U
ENCODING 85
SWIDTH 690 0
DWIDTH 10 0
BBX 11 11 0 1
BITMAP
000004000000
1359EA000000
EFFF70000000
09FE07EDDC50
05FB0029B000
04FA00018000
03FB00007000
01FD00007000
00DF20035000
005FB12B0000
0006DEC30000
ENDCHAR
STARTCHAR V
ENCODING 86
SWIDTH 798 0
DWIDTH 11 0
BBX 13 11 0 0
BITMAP
00025900000000
CEFFB200000730
02AF900015CA00
000CE10AFFB000
0004F8000D1000
0000CF20270000
00005FB0710000
00000DF7600000
000006FE100000
000001E9000000
00000073000000
ENDCHAR
STARTCHAR W
ENCODING 87
SWIDTH 1120 0
DWIDTH 16 0
BBX 19 12 -1 -1
BITMAP
00000000000006630000
00000000000002BFFF50
000180000000000E5000
027E6000000000390000
259F8000810000810000
000DD004E90001800000
0007F4077F4007200000
0003FB621ED118000000
0000DF9009F982000000
00007F2002FF90000000
0000280000AF20000000
00000000003800000000
ENDCHAR
STARTCHAR X
ENCODING 88
SWIDTH 868 0
DWIDTH 12 0
BBX 13 12 0 -1
BITMAP
00024730000000
EFFFFD10420000
015DFB000CD400
0002DF30191000
00002ED1700000
000007FE300000
000007DF400000
0000661CC00000
00288002E60000
7FFF70008E2000
0026B05FEFD500
00000000001310
ENDCHAR
STARTCHAR Y
ENCODING 89
SWIDTH 796 0
DWIDTH 11 0
BBX 13 14 0 -2
BITMAP
01259000352000
CFFD40003DFF50
05EE1000082000
003ED100610000
0004FD36300000
00006FF6000000
00000AF1000000
000006F0000000
000006F1000000
000007F2000000
000008F3000000
00002DF5000000
0009FFFD200000
00000136400000
ENDCHAR
STARTCHAR Z
ENCODING 90
SWIDTH 627 0
DWIDTH 9 0
BBX 10 12 0 -2
BITMAP
2620023000
3FFFFF7000
3811EF1000
4103FA0000
0007F40000
000BD00000
001F700310
005F100240
00AB000480
00E5002CC0
05F78BFFF1
09C8531020
ENDCHAR
STARTCHAR bracketleft
ENCODING 91
SWIDTH 344 0
DWIDTH 5 0
BBX 5 14 0 -3
BITMAP
0AD930
0E8110
1F4000
3F2000
5F1000
6F0000
8E0000
9D0000
AD0000
BD0000
CD0000
DD0000
CF2000
7EFE50
ENDCHAR
STARTCHAR backslash
ENCODING 92
SWIDTH 347 0
DWIDTH 5 0
BBX 5 16 0 -2
BITMAP
100000
800000
710000
350000
080000
080000
063000
027000
008000
008100
004500
000900
000900
000630
000170
000050
ENDCHAR
STARTCHAR bracketright
ENCODING 93
SWIDTH 334 0
DWIDTH 5 0
BBX 5 13 0 -3
BITMAP
002200
2CFB00
11CC00
00BE00
00AF00
009F20
008F30
008F40
007F60
007F70
009F80
03D810
560000
ENDCHAR
STARTCHAR asciicircum
ENCODING 94
SWIDTH 658 0
DWIDTH 9 0
BBX 9 3 0 8
BITMAP
0006C20000
03BFFF9300
3D8217BE50
ENDCHAR
STARTCHAR underscore
ENCODING 95
SWIDTH 678 0
DWIDTH 10 0
BBX 9 2 0 -5
BITMAP
0369ACDFA0
1543211000
ENDCHAR
STARTCHAR grave
ENCODING 96
SWIDTH 278 0
DWIDTH 4 0
BBX 4 3 0 11
BITMAP
3C10
0A80
0091
ENDCHAR
STARTCHAR a
ENCODING 97
SWIDTH 527 0
DWIDTH 7 0
BBX 8 10 0 -1
BITMAP
05DE6000
0B16F300
1E40F800
0BB0CB00
0000BD00
19DFFF10
9C209F30
BB128F51
4DEA2FA6
000008E7
ENDCHAR
STARTCHAR b
ENCODING 98
SWIDTH 582 0
DWIDTH 8 0
BBX 10 16 -2 0
BITMAP
0005200000
015E300000
1FFF300000
004F400000
000F400000
000E500000
000D500000
000D600000
000C700000
000B86DEA1
000BC416F9
000AB000CD
000AE000CC
0009F515F8
002DFFFE80
01D8421000
ENDCHAR
STARTCHAR c
ENCODING 99
SWIDTH 437 0
DWIDTH 6 0
BBX 6 8 0 1
BITMAP
02BFC2
1C28F8
7803E5
B60000
B70016
9B0008
3F7139
05DEB2
ENDCHAR
STARTCHAR d
ENCODING 100
SWIDTH 523 0
DWIDTH 7 0
BBX 8 13 0 1
BITMAP
00004A50
0009DF50
00004F50
00003F40
00003F40
00002F30
00002F30
00002F30
08EEDF30
8F512F20
CD001F20
9F514F50
1AEFEDD6
ENDCHAR
STARTCHAR e
ENCODING 101
SWIDTH 434 0
DWIDTH 6 0
BBX 6 7 0 1
BITMAP
03BFD4
2E618C
9E02BA
BFEEA2
AF1006
4F9129
05CEC3
ENDCHAR
STARTCHAR f
ENCODING 102
SWIDTH 299 0
DWIDTH 4 0
BBX 8 18 -1 -2
BITMAP
00009EC2
00077188
000C06D8
003A2EC2
00590000
00AB1300
6EFFD600
10AC0000
009B0000
009C0000
009C0000
009D0000
008D0000
008E0000
008F0000
009F4000
03EFFB00
09510000
ENDCHAR
STARTCHAR g
ENCODING 103
SWIDTH 567 0
DWIDTH 8 0
BBX 10 13 -1 -5
BITMAP
0000009EC1
006DFE77F4
03FA15F8E2
07F501F500
04F917F300
007EFD6000
0097000000
004DFDA300
02C714BF30
0DB0001E70
2FA0000E50
0EF6129B00
03BEEC7000
ENDCHAR
STARTCHAR h
ENCODING 104
SWIDTH 566 0
DWIDTH 8 0
BBX 9 16 -1 -1
BITMAP
015B300000
2EEF200000
004F000000
003E000000
003D000000
004C000000
005B000000
006A000000
007A000000
00898EC200
00AD42F900
00BB00CB00
00D700CB00
03F800DC00
7FFF58EEC0
0000020000
ENDCHAR
STARTCHAR i
ENCODING 105
SWIDTH 301 0
DWIDTH 4 0
BBX 4 11 0 1
BITMAP
07C0
07D0
0000
BFF2
0BF1
09E0
09D0
09B0
09A0
0CC1
AEEE
ENDCHAR
STARTCHAR j
ENCODING 106
SWIDTH 367 0
DWIDTH 5 0
BBX 7 16 -2 -7
BITMAP
0000B800
0000B800
00101300
004DFF50
0001CF80
00003FA0
00000DB0
000009C0
000007D0
000006C0
000006B0
1BE40790
6FD30960
85000D10
5912A800
08EE8000
ENDCHAR
STARTCHAR k
ENCODING 107
SWIDTH 567 0
DWIDTH 8 0
BBX 9 16 -1 -2
BITMAP
1388000000
DEF8000000
00C8000000
0098000000
0089000000
0089000000
008A351000
007A1BFD00
007B084000
007CB40000
006ED60240
006E7C0070
006F1E8190
006F23DE50
009F600000
2BDCDE2000
ENDCHAR
STARTCHAR l
ENCODING 108
SWIDTH 354 0
DWIDTH 5 0
BBX 6 14 -1 -1
BITMAP
001900
16DF00
9ADF10
008F10
006F20
004F20
003F30
002F40
000F50
000E60
000D70
001DB1
02FFFD
001001
ENDCHAR
STARTCHAR m
ENCODING 109
SWIDTH 708 0
DWIDTH 10 0
BBX 10 7 0 1
BITMAP
0260000000
4DC9E79F90
06F38E29F0
04E07D06F0
04E3FF58E0
5FFA022CE0
0102000054
ENDCHAR
STARTCHAR n
ENCODING 110
SWIDTH 584 0
DWIDTH 8 0
BBX 8 11 0 -2
BITMAP
02600000
3DA09EA0
29C526F5
05F500F8
02F400D8
00E300D7
00C400E5
00B702F4
0CFFAFF3
01011268
00000001
ENDCHAR
STARTCHAR o
ENCODING 111
SWIDTH 503 0
DWIDTH 7 0
BBX 7 7 0 1
BITMAP
03CEC500
2F917F30
8F200D90
AF100BB0
9F400A90
2FC13E30
04CEC500
ENDCHAR
STARTCHAR p
ENCODING 112
SWIDTH 509 0
DWIDTH 7 0
BBX 7 14 0 -6
BITMAP
04B00000
8DE7ED30
05F52DB0
04E009D0
04D00AC0
05F32E60
05FDE800
05F00000
06F00000
06F10000
07F20000
0AF50000
7FFE4000
00132000
ENDCHAR
STARTCHAR q
ENCODING 113
SWIDTH 505 0
DWIDTH 7 0
BBX 8 14 0 -6
BITMAP
00000010
1AEDBD20
8F41AA00
BD008A00
9F41BA00
2BFCCA00
00009A00
0000AA00
0000AA00
0000AA00
0000BA00
0000CB00
007FFE40
000137C1
ENDCHAR
STARTCHAR r
ENCODING 114
SWIDTH 414 0
DWIDTH 6 0
BBX 7 10 0 0
BITMAP
0001CE40
04773790
AFB63E50
09F30000
07F20000
05F30000
04F60000
02F90000
05FFC000
6B410000
ENDCHAR
STARTCHAR s
ENCODING 115
SWIDTH 482 0
DWIDTH 7 0
BBX 8 11 -1 -1
BITMAP
00000020
0007EDA0
001F42B0
001E2060
0006C110
00008D20
002409D1
00A101E8
06F000CB
134715F7
0004DE90
ENDCHAR
STARTCHAR t
ENCODING 116
SWIDTH 434 0
DWIDTH 6 0
BBX 6 11 0 0
BITMAP
000910
001D00
02BB00
8FFFE2
06F710
09E000
0DA000
0E9000
0EA04C
09E31B
01AFD3
ENDCHAR
STARTCHAR u
ENCODING 117
SWIDTH 744 0
DWIDTH 10 0
BBX 11 7 0 0
BITMAP
04B00DFF1000
ADF2003F3000
01F5001F5000
00E8002D8000
00BC0039FE50
006F61435200
000AEB100000
ENDCHAR
STARTCHAR v
ENCODING 118
SWIDTH 600 0
DWIDTH 8 0
BBX 9 9 0 0
BITMAP
0068000000
4BF6000000
02FA09EE30
00AE109100
004F507000
000CB15000
0005F81000
0000DA0000
0000640000
ENDCHAR
STARTCHAR w
ENCODING 119
SWIDTH 745 0
DWIDTH 10 0
BBX 11 7 0 0
BITMAP
000200017C50
15B307408500
CFF40EC09000
08FA58F77000
01EF90CF3000
008F403A0000
001A00000000
ENDCHAR
STARTCHAR x
ENCODING 120
SWIDTH 548 0
DWIDTH 8 0
BBX 8 9 0 0
BITMAP
01498000
FFFC1100
06FC2DFA
008F5820
001DE100
000AF200
0183DA10
3B82AFF3
00097100
ENDCHAR
STARTCHAR y
ENCODING 121
SWIDTH 659 0
DWIDTH 9 0
BBX 10 13 0 -6
BITMAP
001A200030
17E50CEFD1
BFD0019F50
0CE0005F40
07F4007F30
02EC229F10
004DE95D00
0000006A00
0000008700
00BE30C200
044E44A000
05414D2000
01BEB30000
ENDCHAR
STARTCHAR z
ENCODING 122
SWIDTH 460 0
DWIDTH 6 0
BBX 7 8 0 -1
BITMAP
8FDEF700
9203E100
500B7000
006E1000
01E60040
0AE12770
5FFFFF50
33100000
ENDCHAR
STARTCHAR braceleft
ENCODING 123
SWIDTH 460 0
DWIDTH 6 0
BBX 7 17 0 -4
BITMAP
0009EC10
005D1000
008C0000
007E0000
005F3000
004F5000
007F4000
27EA0000
4A400000
00A30000
006C0000
005F1000
006F2000
007F2000
007F2000
005F7240
000AEC10
ENDCHAR
STARTCHAR bar
ENCODING 124
SWIDTH 368 0
DWIDTH 5 0
BBX 1 15 2 -3
BITMAP
60
70
70
70
70
70
70
70
70
70
70
70
70
60
50
ENDCHAR
STARTCHAR braceright
ENCODING 125
SWIDTH 476 0
DWIDTH 7 0
BBX 7 15 0 -4
BITMAP
2CEA1000
818F7000
003FA000
001FA000
000DA000
0004C420
00002B10
00009800
00009B00
00006E00
00002F40
00000E50
00000E40
00018C00
003E9100
ENDCHAR
STARTCHAR asciitilde
ENCODING 126
SWIDTH 733 0
DWIDTH 10 0
BBX 10 3 0 2
BITMAP
0000000016
04DEB611B2
26127CFD40
ENDCHAR
STARTCHAR nonbreakingspace
ENCODING 160
SWIDTH 270 0
DWIDTH 4 0
BBX 1 1 0 0
BITMAP
00
ENDCHAR
STARTCHAR exclamdown
ENCODING 161
SWIDTH 247 0
DWIDTH 3 0
BBX 3 15 0 -2
BITMAP
2E50
2E50
0000
0100
0900
0920
0A40
0B60
0C70
0D80
0FA0
1FA0
2FB0
3FA0
1D60
ENDCHAR
STARTCHAR cent
ENCODING 162
SWIDTH 799 0
DWIDTH 11 0
BBX 7 13 2 -4
BITMAP
00200000
00500000
01AEE800
0BD41B70
5F250CA0
9D051E70
AD050000
8F224050
2EC37650
03BFF600
00006200
00001600
00000300
ENDCHAR
STARTCHAR sterling
ENCODING 163
SWIDTH 799 0
DWIDTH 11 0
BBX 8 13 2 -1
BITMAP
005DEA00
05D31D70
0C806F90
0F80AE30
0FB00000
0DF10000
3CFB5000
42FE1000
00AF4000
004F6000
001F5014
7EEF8217
9FE58EE4
ENDCHAR
STARTCHAR currency
ENCODING 164
SWIDTH 732 0
DWIDTH 10 0
BBX 10 10 0 0
BITMAP
0000002100
110001A000
097CFFD200
05B3016B00
0A00000900
0B00000900
0A7103A500
02EFEC8700
01C0000381
0650000011
ENDCHAR
STARTCHAR yen
ENCODING 165
SWIDTH 799 0
DWIDTH 11 0
BBX 11 15 0 -2
BITMAP
000144000000
4EFFD0013990
01BFE01FF700
000CF5018000
0003FD051000
0000AF870000
00003FF40000
00000CF20000
001EEFFEEF50
00078DFEE100
00000AE10000
00000BE00000
00000EF30000
0003AFFF9000
000C84210000
ENDCHAR
STARTCHAR brokenbar
ENCODING 166
SWIDTH 341 0
DWIDTH 5 0
BBX 1 17 2 -4
BITMAP
60
70
70
70
70
60
00
00
40
70
70
70
70
80
80
80
70
ENDCHAR
STARTCHAR section
ENCODING 167
SWIDTH 546 0
DWIDTH 8 0
BBX 7 16 0 -4
BITMAP
005DEB20
03D31BC0
08B00CB0
08F30000
03FE5000
088EF800
2D019F70
4F3006D0
1EE400C0
03EF8360
0019FB00
00003E40
00000490
00000080
00CC2440
008ED600
ENDCHAR
STARTCHAR dieresis
ENCODING 168
SWIDTH 393 0
DWIDTH 6 0
BBX 4 2 1 9
BITMAP
6B00
7B97
ENDCHAR
STARTCHAR copyright
ENCODING 169
SWIDTH 1023 0
DWIDTH 14 0
BBX 14 13 0 -2
BITMAP
00006BEECA4000
002C831026D900
01C30002200A90
08403BEE2000C2
0B00D817200067
2703F100300038
4503F200500038
4500DB22700046
18003BEB100093
0A1000000002C0
04A10000002D30
006D620138D400
00039DFEC71000
ENDCHAR
STARTCHAR ordfeminine
ENCODING 170
SWIDTH 558 0
DWIDTH 8 0
BBX 8 7 0 4
BITMAP
08ED3000
3E16C000
3E21F000
04DFF100
0E51F251
1F24E671
0AFA5E90
ENDCHAR
STARTCHAR guillemotleft
ENCODING 171
SWIDTH 608 0
DWIDTH 9 0
BBX 8 13 0 -4
BITMAP
00000004
00000216
00006263
0003A0B0
004E34A0
07F72E80
2EF42DE1
03ED03F5
003E7089
0004E11B
00007807
00000A10
00000110
ENDCHAR
STARTCHAR logicalnot
ENCODING 172
SWIDTH 616 0
DWIDTH 9 0
BBX 8 5 0 3
BITMAP
00000010
3FEDCCCC
0000000B
00000009
00000001
ENDCHAR
STARTCHAR uni00AD
ENCODING 173
SWIDTH 436 0
DWIDTH 6 0
BBX 6 2 0 3
BITMAP
120010
2BEFD4
ENDCHAR
STARTCHAR registered
ENCODING 174
SWIDTH 1048 0
DWIDTH 15 0
BBX 14 13 0 -3
BITMAP
00006BEFDA5000
002C9410149B10
02C300000002A0
0934EEFFC30035
0A004F12D90007
37000F14E60006
46000FFF600005
48001F4F304105
1B006F6BC25306
0A4AEDEAAEB044
02D30002000390
003D9410149B10
00017CEFEB5000
ENDCHAR
STARTCHAR macron
ENCODING 175
SWIDTH 382 0
DWIDTH 5 0
BBX 5 1 0 11
BITMAP
2CEF80
ENDCHAR
STARTCHAR degree
ENCODING 176
SWIDTH 346 0
DWIDTH 5 0
BBX 5 3 0 11
BITMAP
1BE900
481A10
1BE900
ENDCHAR
STARTCHAR plusminus
ENCODING 177
SWIDTH 580 0
DWIDTH 8 0
BBX 8 6 0 2
BITMAP
00017000
00038000
0DEDECB3
00006000
00003000
3EDCBB30
ENDCHAR
STARTCHAR twosuperior
ENCODING 178
SWIDTH 365 0
DWIDTH 5 0
BBX 5 8 0 4
BITMAP
03DC20
051D80
000B80
002E20
039300
4D2030
04EC20
004300
ENDCHAR
STARTCHAR threesuperior
ENCODING 179
SWIDTH 371 0
DWIDTH 5 0
BBX 5 8 0 5
BITMAP
010100
4FF500
227000
02CA10
200BA0
5007D0
731CA0
1BEB20
ENDCHAR
STARTCHAR acute
ENCODING 180
SWIDTH 234 0
DWIDTH 3 0
BBX 3 3 0 11
BITMAP
0470
0C20
3600
ENDCHAR
STARTCHAR mu
ENCODING 181
SWIDTH 634 0
DWIDTH 9 0
BBX 9 14 0 -6
BITMAP
0100000000
6D00011000
6C001E6000
6E000C7000
6F300B9000
5FB23DB150
5F6EC3E270
4F10006E70
4F20000000
3F40000000
3F50000000
2F70000000
1F80000000
0100000000
ENDCHAR
STARTCHAR paragraph
ENCODING 182
SWIDTH 707 0
DWIDTH 10 0
BBX 10 18 0 -5
BITMAP
0000000001
0000003682
04ACEFFE10
6FFF808A00
DFFF607800
EFFF508700
AFFF508600
19FF508600
002F509700
000D509700
000C609800
000B70A900
000A80AB00
000A90AD00
000AA0AF60
000BA09FEC
018FB00000
1D94100000
ENDCHAR
STARTCHAR periodcentered
ENCODING 183
SWIDTH 238 0
DWIDTH 3 0
BBX 3 2 0 5
BITMAP
2E70
2E70
ENDCHAR
STARTCHAR cedilla
ENCODING 184
SWIDTH 332 0
DWIDTH 5 0
BBX 4 5 0 -3
BITMAP
0040
02A1
019B
336D
0AE6
ENDCHAR
STARTCHAR onesuperior
ENCODING 185
SWIDTH 336 0
DWIDTH 5 0
BBX 5 6 0 6
BITMAP
002600
14D600
00A500
00B600
69F900
279D40
ENDCHAR
STARTCHAR ordmasculine
ENCODING 186
SWIDTH 503 0
DWIDTH 7 0
BBX 7 6 0 5
BITMAP
05DEC400
38129F30
74000B80
78000780
2E721B40
04CFD600
ENDCHAR
STARTCHAR guillemotright
ENCODING 187
SWIDTH 778 0
DWIDTH 11 0
BBX 11 13 0 -4
BITMAP
000050000000
210038000000
1A0008700000
07B200AA1000
009FA519D500
0005EF65FC10
0004E44F9100
002D32E70000
00B409900000
04801D100000
070057000000
010072000000
000030000000
ENDCHAR
STARTCHAR onequarter
ENCODING 188
SWIDTH 876 0
DWIDTH 12 0
BBX 12 14 0 -1
BITMAP
000000000430
002600001800
14D600009100
00A500065000
00B600380000
69F901A03300
279D4920A500
00005603D600
000290048811
000910316A82
006300BDFFF2
037000225F50
08000004EFEE
000000012000
ENDCHAR
STARTCHAR onehalf
ENCODING 189
SWIDTH 762 0
DWIDTH 11 0
BBX 11 14 0 -1
BITMAP
000000000430
002600001800
14D600009100
00A500065000
00B600380000
69F901A00000
279D493AE600
000056327F00
000290004F00
00091000A800
006300076000
037001C70210
0800001BD600
000000017000
ENDCHAR
STARTCHAR threequarters
ENCODING 190
SWIDTH 922 0
DWIDTH 13 0
BBX 13 14 0 -1
BITMAP
01010000006100
4FF50000036000
22700000190000
02CA1000920000
200BA006600000
5007D029070000
731CA0A11E0000
1BEB28306F1000
000047023E3200
000190040C6900
0009103DDFFC00
006400121AD200
017000009FEF80
00000000210000
ENDCHAR
STARTCHAR questiondown
ENCODING 191
SWIDTH 571 0
DWIDTH 8 0
BBX 8 13 0 -2
BITMAP
0009E300
0009E300
00000000
00035000
00007000
00046000
006C0000
08F35EC2
4FC07FF9
9F9005EB
9FB00088
3FF612C2
05CEEB30
ENDCHAR
STARTCHAR Agrave
ENCODING 192
SWIDTH 784 0
DWIDTH 11 0
BBX 12 17 0 -2
BITMAP
00B500000000
004D10000000
000470000000
000000000000
00016C200000
009EFF700000
00008CD00000
000167F30000
000623F80000
000A20EE0000
003DECEF4000
00A304CFA000
03B0002FE100
EFC2000BF600
03850006FD20
00000006FFF2
000000983000
ENDCHAR
STARTCHAR Aacute
ENCODING 193
SWIDTH 784 0
DWIDTH 11 0
BBX 12 18 0 -2
BITMAP
000008300000
00002C000000
000062000000
000000000000
000000000000
00016C200000
009EFF700000
00008CD00000
000167F30000
000623F80000
000A20EE0000
003DECEF4000
00A304CFA000
03B0002FE100
EFC2000BF600
03850006FD20
00000006FFF2
000000983000
ENDCHAR
STARTCHAR Acircumflex
ENCODING 194
SWIDTH 784 0
DWIDTH 11 0
BBX 12 17 0 -2
BITMAP
00003B100000
000198C30000
0016006D0000
000000000000
00016C200000
009EFF700000
00008CD00000
000167F30000
000623F80000
000A20EE0000
003DECEF4000
00A304CFA000
03B0002FE100
EFC2000BF600
03850006FD20
00000006FFF2
000000983000
ENDCHAR
STARTCHAR Atilde
ENCODING 195
SWIDTH 784 0
DWIDTH 11 0
BBX 12 16 0 -2
BITMAP
001CC5230000
00327EC10000
000000000000
00016C200000
009EFF700000
00008CD00000
000167F30000
000623F80000
000A20EE0000
003DECEF4000
00A304CFA000
03B0002FE100
EFC2000BF600
03850006FD20
00000006FFF2
000000983000
ENDCHAR
STARTCHAR Adieresis
ENCODING 196
SWIDTH 784 0
DWIDTH 11 0
BBX 12 16 0 -2
BITMAP
0009D2E20000
0009C2E20000
000000000000
00016C200000
009EFF700000
00008CD00000
000167F30000
000623F80000
000A20EE0000
003DECEF4000
00A304CFA000
03B0002FE100
EFC2000BF600
03850006FD20
00000006FFF2
000000983000
ENDCHAR
STARTCHAR Aring
ENCODING 197
SWIDTH 784 0
DWIDTH 11 0
BBX 12 17 0 -2
BITMAP
0000BE500000
000471900000
000471900000
0000BE400000
00016C200000
009EFF700000
00008CD00000
000167F30000
000623F80000
000A20EE0000
003DECEF4000
00A304CFA000
03B0002FE100
EFC2000BF600
03850006FD20
00000006FFF2
000000983000
ENDCHAR
STARTCHAR AE
ENCODING 198
SWIDTH 1172 0
DWIDTH 16 0
BBX 17 14 0 -2
BITMAP
000000000000470000
0000000136AEFC0000
000009FFDF73180000
000000178E00040000
000000037F10420000
000000215F52B10000
000000405FFDE10000
000002306F90430600
00000AFFEFB0030900
000049102FE0001E20
0000A0000FF304CE40
000850000FFC852000
029E00005D50000000
EEDDE1036000000000
ENDCHAR
STARTCHAR Ccedilla
ENCODING 199
SWIDTH 742 0
DWIDTH 10 0
BBX 11 18 0 -6
BITMAP
000000002300
000000005300
003AEFECE400
06FA3128F500
3FC000007800
9F6000000700
DF3000000000
EF3000000000
DF5000000230
AFA000000420
3FF300000900
06FE7113A400
003AEFEA3000
000005000000
00000A900000
000001D50000
000061C60000
00004EB10000
ENDCHAR
STARTCHAR Egrave
ENCODING 200
SWIDTH 557 0
DWIDTH 8 0
BBX 8 16 0 -2
BITMAP
0A500000
03E20000
00470000
55458BE0
3EF51060
0AF30000
07F30000
05F41300
03FEF300
01F65300
00E72200
00D80000
00C90005
00CB0039
AFFFDDF9
00123462
ENDCHAR
STARTCHAR Eacute
ENCODING 201
SWIDTH 557 0
DWIDTH 8 0
BBX 8 17 0 -2
BITMAP
00005700
0000C100
00035000
00000000
55458BE0
3EF51060
0AF30000
07F30000
05F41300
03FEF300
01F65300
00E72200
00D80000
00C90005
00CB0039
AFFFDDF9
00123462
ENDCHAR
STARTCHAR Ecircumflex
ENCODING 202
SWIDTH 557 0
DWIDTH 8 0
BBX 8 17 0 -2
BITMAP
00087000
0057C910
03401A80
00000000
55458BE0
3EF51060
0AF30000
07F30000
05F41300
03FEF300
01F65300
00E72200
00D80000
00C90005
00CB0039
AFFFDDF9
00123462
ENDCHAR
STARTCHAR Edieresis
ENCODING 203
SWIDTH 557 0
DWIDTH 8 0
BBX 8 16 0 -2
BITMAP
02E78A00
01E68A00
00000000
55458BE0
3EF51060
0AF30000
07F30000
05F41300
03FEF300
01F65300
00E72200
00D80000
00C90005
00CB0039
AFFFDDF9
00123462
ENDCHAR
STARTCHAR Igrave
ENCODING 204
SWIDTH 438 0
DWIDTH 6 0
BBX 8 18 -1 -3
BITMAP
00A60000
003E2000
00038000
00000000
2CCBBDEC
028FF810
001FE000
000FB000
000F9000
000F7000
000F5000
000F4000
000F3000
000F2000
001F2000
002F4000
03DFFC00
69510000
ENDCHAR
STARTCHAR Iacute
ENCODING 205
SWIDTH 438 0
DWIDTH 6 0
BBX 8 18 -1 -3
BITMAP
00000840
00002C00
00006300
00000000
2CCBBDEC
028FF810
001FE000
000FB000
000F9000
000F7000
000F5000
000F4000
000F3000
000F2000
001F2000
002F4000
03DFFC00
69510000
ENDCHAR
STARTCHAR Icircumflex
ENCODING 206
SWIDTH 438 0
DWIDTH 6 0
BBX 8 18 -1 -3
BITMAP
0001C200
00096D50
006104D2
00000000
2CCBBDEC
028FF810
001FE000
000FB000
000F9000
000F7000
000F5000
000F4000
000F3000
000F2000
001F2000
002F4000
03DFFC00
69510000
ENDCHAR
STARTCHAR Idieresis
ENCODING 207
SWIDTH 438 0
DWIDTH 6 0
BBX 8 18 -1 -3
BITMAP
009D2E20
009C2E20
00000000
00000000
2CCBBDEC
028FF810
001FE000
000FB000
000F9000
000F7000
000F5000
000F4000
000F3000
000F2000
001F2000
002F4000
03DFFC00
69510000
ENDCHAR
STARTCHAR Eth
ENCODING 208
SWIDTH 730 0
DWIDTH 10 0
BBX 11 12 0 -3
BITMAP
3ABCEFDA3000
15EC02AFF400
00CB000BFD00
00BB0004FF30
00CB2002FF50
6CFFB103FF40
22CB0005FE10
00DC000CF600
00EE12AF7000
05FFEB720000
3B5200000000
400000000000
ENDCHAR
STARTCHAR Ntilde
ENCODING 209
SWIDTH 799 0
DWIDTH 11 0
BBX 12 16 0 -3
BITMAP
00002DB35100
0000419EA000
001100000131
EFFD200EEFC1
04FFD2008800
00ADFD103500
0082EFC13400
00704FFC6300
007006FFF300
0070008FF300
00700009F200
00700000A100
009000000000
06D000000000
CEFC30000000
001530000000
ENDCHAR
STARTCHAR Ograve
ENCODING 210
SWIDTH 747 0
DWIDTH 10 0
BBX 11 15 0 0
BITMAP
007900000000
001D50000000
000190000000
000000000000
000000000000
005CEEC71000
09E5128FD100
5F500007FB00
BE000001EF20
ED000000BF50
DE000000AF50
BF200000BF20
5FA00001EB00
09F9203CD200
005BEFD81000
ENDCHAR
STARTCHAR Oacute
ENCODING 211
SWIDTH 747 0
DWIDTH 10 0
BBX 11 15 0 0
BITMAP
000008300000
00002C000000
000062000000
000000000000
000000000000
005CEEC71000
09E5128FD100
5F500007FB00
BE000001EF20
ED000000BF50
DE000000AF50
BF200000BF20
5FA00001EB00
09F9203CD200
005BEFD81000
ENDCHAR
STARTCHAR Ocircumflex
ENCODING 212
SWIDTH 747 0
DWIDTH 10 0
BBX 11 14 0 0
BITMAP
000095000000
00066D810000
004301A70000
000000000000
005CEEC71000
09E5128FD100
5F500007FB00
BE000001EF20
ED000000BF50
DE000000AF50
BF200000BF20
5FA00001EB00
09F9203CD200
005BEFD81000
ENDCHAR
STARTCHAR Otilde
ENCODING 213
SWIDTH 747 0
DWIDTH 10 0
BBX 11 14 0 0
BITMAP
0009E7150000
00045CE30000
000000000000
000000000000
005CEEC71000
09E5128FD100
5F500007FB00
BE000001EF20
ED000000BF50
DE000000AF50
BF200000BF20
5FA00001EB00
09F9203CD200
005BEFD81000
ENDCHAR
STARTCHAR Odieresis
ENCODING 214
SWIDTH 747 0
DWIDTH 10 0
BBX 11 14 0 0
BITMAP
000BB3E10000
000BA4D00000
000000000000
000000000000
005CEEC71000
09E5128FD100
5F500007FB00
BE000001EF20
ED000000BF50
DE000000AF50
BF200000BF20
5FA00001EB00
09F9203CD200
005BEFD81000
ENDCHAR
STARTCHAR multiply
ENCODING 215
SWIDTH 541 0
DWIDTH 8 0
BBX 7 9 0 0
BITMAP
00000010
00000370
04001900
02918100
002E6000
00467600
01900310
0A100000
25000000
ENDCHAR
STARTCHAR Oslash
ENCODING 216
SWIDTH 747 0
DWIDTH 10 0
BBX 11 14 0 -2
BITMAP
000000000400
000000002700
005CEEC79100
09E5127FD100
5F50001CFB00
BE000192EF20
ED000920BF50
DD008300AF50
BF264000BF20
5FC60001EB00
09FA203CD200
067BEFD81000
260000000000
100000000000
ENDCHAR
STARTCHAR Ugrave
ENCODING 217
SWIDTH 690 0
DWIDTH 10 0
BBX 11 15 0 1
BITMAP
0002C1000000
000099000000
000009200000
000000000000
000004000000
1359EA000000
EFFF70000000
09FE07EDDC50
05FB0029B000
04FA00018000
03FB00007000
01FD00007000
00DF20035000
005FB12B0000
0006DEC30000
ENDCHAR
STARTCHAR Uacute
ENCODING 218
SWIDTH 690 0
DWIDTH 10 0
BBX 11 13 0 1
BITMAP
00000001B000
000000077000
000004080000
1359EA000000
EFFF70000000
09FE07EDDC50
05FB0029B000
04FA00018000
03FB00007000
01FD00007000
00DF20035000
005FB12B0000
0006DEC30000
ENDCHAR
STARTCHAR Ucircumflex
ENCODING 219
SWIDTH 690 0
DWIDTH 10 0
BBX 11 13 0 1
BITMAP
000009600000
000056D81000
0004441A8000
1359EA000000
EFFF70000000
09FE07EDDC50
05FB0029B000
04FA00018000
03FB00007000
01FD00007000
00DF20035000
005FB12B0000
0006DEC30000
ENDCHAR
STARTCHAR Udieresis
ENCODING 220
SWIDTH 690 0
DWIDTH 10 0
BBX 11 14 0 1
BITMAP
0001E77B0000
0001D77B0000
000000000000
000004000000
1359EA000000
EFFF70000000
09FE07EDDC50
05FB0029B000
04FA00018000
03FB00007000
01FD00007000
00DF20035000
005FB12B0000
0006DEC30000
ENDCHAR
STARTCHAR Yacute
ENCODING 221
SWIDTH 796 0
DWIDTH 11 0
BBX 13 18 0 -2
BITMAP
00000001B00000
00000007700000
00000008000000
00000000000000
01259000352000
CFFD40003DFF50
05EE1000082000
003ED100610000
0004FD36300000
00006FF6000000
00000AF1000000
000006F0000000
000006F1000000
000007F2000000
000008F3000000
00002DF5000000
0009FFFD200000
00000136400000
ENDCHAR
STARTCHAR Thorn
ENCODING 222
SWIDTH 479 0
DWIDTH 7 0
BBX 7 15 0 -2
BITMAP
7FFF4000
08F20000
04E10000
04FFEA20
04C14FB0
05B00DE0
05C03FB0
06EEFB20
06C00000
07C00000
08C00000
09C00000
0CE10000
7FFC1000
11020000
ENDCHAR
STARTCHAR germandbls
ENCODING 223
SWIDTH 591 0
DWIDTH 8 0
BBX 10 15 -1 -2
BITMAP
01BEB10000
0951BA0000
0B005D0000
0C004B0000
0D00750000
0C20400000
0A6BFD9200
08903AFE20
05D0008FA0
02F2000CE0
00E70006F1
00CC0003E0
00AF5E4590
02DB4DEA10
2710000000
ENDCHAR
STARTCHAR agrave
ENCODING 224
SWIDTH 527 0
DWIDTH 7 0
BBX 8 14 0 -1
BITMAP
78000000
1D400000
02900000
00000000
05DE6000
0B16F300
1E40F800
0BB0CB00
0000BD00
19DFFF10
9C209F30
BB128F51
4DEA2FA6
000008E7
ENDCHAR
STARTCHAR aacute
ENCODING 225
SWIDTH 527 0
DWIDTH 7 0
BBX 8 14 0 -1
BITMAP
0001B000
00077000
00080000
00000000
05DE6000
0B16F300
1E40F800
0BB0CB00
0000BD00
19DFFF10
9C209F30
BB128F51
4DEA2FA6
000008E7
ENDCHAR
STARTCHAR acircumflex
ENCODING 226
SWIDTH 527 0
DWIDTH 7 0
BBX 8 14 0 -1
BITMAP
002B1000
0197D300
16005D00
00000000
05DE6000
0B16F300
1E40F800
0BB0CB00
0000BD00
19DFFF10
9C209F30
BB128F51
4DEA2FA6
000008E7
ENDCHAR
STARTCHAR atilde
ENCODING 227
SWIDTH 527 0
DWIDTH 7 0
BBX 8 12 0 -1
BITMAP
03EB3600
0429E900
05DE6000
0B16F300
1E40F800
0BB0CB00
0000BD00
19DFFF10
9C209F30
BB128F51
4DEA2FA6
000008E7
ENDCHAR
STARTCHAR adieresis
ENCODING 228
SWIDTH 527 0
DWIDTH 7 0
BBX 8 13 0 -1
BITMAP
06B00000
07B97000
00000000
05DE6000
0B16F300
1E40F800
0BB0CB00
0000BD00
19DFFF10
9C209F30
BB128F51
4DEA2FA6
000008E7
ENDCHAR
STARTCHAR aring
ENCODING 229
SWIDTH 527 0
DWIDTH 7 0
BBX 8 14 0 -1
BITMAP
009E7000
0291A000
02919000
00AE6000
05DE6000
0B16F300
1E40F800
0BB0CB00
0000BD00
19DFFF10
9C209F30
BB128F51
4DEA2FA6
000008E7
ENDCHAR
STARTCHAR ae
ENCODING 230
SWIDTH 700 0
DWIDTH 10 0
BBX 10 9 0 -1
BITMAP
000005DE80
1CE43715F2
672D8002F2
4C0C803CC0
05DFFFE910
5D3AB00006
B608E20008
A717DD3174
3DD22CFE70
ENDCHAR
STARTCHAR ccedilla
ENCODING 231
SWIDTH 437 0
DWIDTH 6 0
BBX 6 12 0 -3
BITMAP
02BFC2
1C28F8
7803E5
B60000
B70016
9B0008
3F7139
05DFB2
001700
001AA0
0245E0
009E70
ENDCHAR
STARTCHAR egrave
ENCODING 232
SWIDTH 434 0
DWIDTH 6 0
BBX 6 12 0 1
BITMAP
1D2000
07B000
007400
000000
000000
03BFD4
2E618C
9E02BA
BFEEA2
AF1006
4F9129
05CEC3
ENDCHAR
STARTCHAR eacute
ENCODING 233
SWIDTH 434 0
DWIDTH 6 0
BBX 6 11 0 1
BITMAP
0001B0
000760
000800
000000
03BFD4
2E618C
9E02BA
BFEEA2
AF1006
4F9129
05CEC3
ENDCHAR
STARTCHAR ecircumflex
ENCODING 234
SWIDTH 434 0
DWIDTH 6 0
BBX 6 12 0 1
BITMAP
003B00
0298C3
16007C
000000
000000
03BFD4
2E618C
9E02BA
BFEEA2
AF1006
4F9129
05CEC3
ENDCHAR
STARTCHAR edieresis
ENCODING 235
SWIDTH 434 0
DWIDTH 6 0
BBX 6 10 0 1
BITMAP
01E200
02E5C0
000000
03BFD4
2E618C
9E02BA
BFEEA2
AF1006
4F9129
05CEC3
ENDCHAR
STARTCHAR igrave
ENCODING 236
SWIDTH 301 0
DWIDTH 4 0
BBX 5 12 -1 1
BITMAP
690000
1C5000
01A000
000000
0BFF20
00BF10
009E00
009D00
009B00
009A00
00CC10
0AEEE0
ENDCHAR
STARTCHAR iacute
ENCODING 237
SWIDTH 301 0
DWIDTH 4 0
BBX 4 12 0 1
BITMAP
0066
00C1
0440
0000
BFF2
0BF1
09E0
09D0
09B0
09A0
0CC1
AEEE
ENDCHAR
STARTCHAR icircumflex
ENCODING 238
SWIDTH 301 0
DWIDTH 4 0
BBX 6 12 -1 1
BITMAP
005900
038AB2
25008A
000000
0BFF20
00BF10
009E00
009D00
009B00
009A00
00CC10
0AEEE0
ENDCHAR
STARTCHAR idieresis
ENCODING 239
SWIDTH 301 0
DWIDTH 4 0
BBX 4 11 0 1
BITMAP
3E10
4D6A
0000
BFF2
0BF1
09E0
09D0
09B0
09A0
0CC1
AEEE
ENDCHAR
STARTCHAR eth
ENCODING 240
SWIDTH 476 0
DWIDTH 7 0
BBX 8 13 -1 -1
BITMAP
00000100
00002300
19EEC100
9414AD10
00050B80
000005E0
000002F3
004CEBF5
01E717F6
04F200D6
03F500A4
00CD32C0
002AED40
ENDCHAR
STARTCHAR ntilde
ENCODING 241
SWIDTH 584 0
DWIDTH 8 0
BBX 8 13 0 -2
BITMAP
0008E715
00044CE3
02600000
3DA09EA0
29C526F5
05F500F8
02F400D8
00E300D7
00C400E5
00B702F4
0CFFAFF3
01011268
00000001
ENDCHAR
STARTCHAR ograve
ENCODING 242
SWIDTH 400 0
DWIDTH 6 0
BBX 10 11 0 2
BITMAP
00000005E2
6A000002D5
1C50000063
01A0000080
0000000640
0000039700
1AACEA3000
9E24C10000
C903F60000
9B19F40000
1BED600000
ENDCHAR
STARTCHAR oacute
ENCODING 243
SWIDTH 400 0
DWIDTH 6 0
BBX 10 11 0 2
BITMAP
00000005E2
0001A002D5
0008600063
0008000080
0000000640
0000039700
1AACEA3000
9E24C10000
C903F60000
9B19F40000
1BED600000
ENDCHAR
STARTCHAR ocircumflex
ENCODING 244
SWIDTH 400 0
DWIDTH 6 0
BBX 10 11 0 2
BITMAP
00000005E2
00590002D5
038AB20063
25008A0080
0000000640
0000039700
1AACEA3000
9E24C10000
C903F60000
9B19F40000
1BED600000
ENDCHAR
STARTCHAR otilde
ENCODING 245
SWIDTH 400 0
DWIDTH 6 0
BBX 10 11 0 2
BITMAP
00000005E2
00000002D5
0000000063
04EA260080
042AE80640
0000039700
1AACEA3000
9E24C10000
C903F60000
9B19F40000
1BED600000
ENDCHAR
STARTCHAR odieresis
ENCODING 246
SWIDTH 400 0
DWIDTH 6 0
BBX 10 11 0 2
BITMAP
00000005E2
00000002D5
0000000063
03E1000080
04D6A00640
0000039700
1AACEA3000
9E24C10000
C903F60000
9B19F40000
1BED600000
ENDCHAR
STARTCHAR divide
ENCODING 247
SWIDTH 592 0
DWIDTH 8 0
BBX 8 6 0 2
BITMAP
000B7000
00000000
00000010
3FEDDDD7
000A8000
000B7000
ENDCHAR
STARTCHAR oslash
ENCODING 248
SWIDTH 396 0
DWIDTH 6 0
BBX 6 9 0 0
BITMAP
000100
000700
1AEE60
8B69F2
C682F4
AD68E1
2CFC40
080000
080000
ENDCHAR
STARTCHAR ugrave
ENCODING 249
SWIDTH 744 0
DWIDTH 10 0
BBX 11 12 0 0
BITMAP
000D30000000
0006C0000000
000065000000
000000000000
000000000000
04B00DFF1000
ADF2003F3000
01F5001F5000
00E8002D8000
00BC0039FE50
006F61435200
000AEB100000
ENDCHAR
STARTCHAR uacute
ENCODING 250
SWIDTH 744 0
DWIDTH 10 0
BBX 11 12 0 0
BITMAP
000009200000
00003B000000
000072000000
000000000000
000000000000
04B00DFF1000
ADF2003F3000
01F5001F5000
00E8002D8000
00BC0039FE50
006F61435200
000AEB100000
ENDCHAR
STARTCHAR ucircumflex
ENCODING 251
SWIDTH 744 0
DWIDTH 10 0
BBX 11 11 0 0
BITMAP
0002C1000000
00197D400000
006105D10000
000000000000
04B00DFF1000
ADF2003F3000
01F5001F5000
00E8002D8000
00BC0039FE50
006F61435200
000AEB100000
ENDCHAR
STARTCHAR udieresis
ENCODING 252
SWIDTH 744 0
DWIDTH 10 0
BBX 11 10 0 0
BITMAP
0006B0000000
0007B8700000
000000000000
04B00DFF1000
ADF2003F3000
01F5001F5000
00E8002D8000
00BC0039FE50
006F61435200
000AEB100000
ENDCHAR
STARTCHAR yacute
ENCODING 253
SWIDTH 659 0
DWIDTH 9 0
BBX 10 17 0 -6
BITMAP
000001B000
0000077000
0000080000
0000000000
001A200030
17E50CEFD1
BFD0019F50
0CE0005F40
07F4007F30
02EC229F10
004DE95D00
0000006A00
0000008700
00BE30C200
044E44A000
05414D2000
01BEB30000
ENDCHAR
STARTCHAR thorn
ENCODING 254
SWIDTH 514 0
DWIDTH 7 0
BBX 8 21 -1 -9
BITMAP
00480000
9FE20000
07D00000
04D00000
03E00000
02F00000
01FAEC50
00F61BF4
00F303FB
00E300FD
00E501FD
00EA17F9
00EACFB1
00D80000
00D90000
00DA0000
00DB0000
00EC0000
00ED0000
03FF4000
3FFFFA00
ENDCHAR
STARTCHAR ydieresis
ENCODING 255
SWIDTH 659 0
DWIDTH 9 0
BBX 10 16 0 -6
BITMAP
0000D40000
0001E5D100
0000000000
001A200030
17E50CEFD1
BFD0019F50
0CE0005F40
07F4007F30
02EC229F10
004DE95D00
0000006A00
0000008700
00BE30C200
044E44A000
05414D2000
01BEB30000
ENDCHAR
STARTCHAR dotlessi
ENCODING 305
SWIDTH 301 0
DWIDTH 4 0
BBX 4 8 0 1
BITMAP
BFF2
0BF1
09E0
09D0
09B0
09A0
0CC1
AEEE
ENDCHAR
STARTCHAR OE
ENCODING 338
SWIDTH 1132 0
DWIDTH 16 0
BBX 16 14 0 -2
BITMAP
0000000000015C20
004BEEC58FFFCD30
08F7215DAFA10140
4F700002EF800000
BF1000007F800000
DF0000002F900300
DF3000000FB14600
AF9000001FFCC600
4FF400006FC00600
07FE7116AED00104
004BEFD70EF00009
000000000EF214AB
000000007FFFFFFC
0000000796310011
ENDCHAR
STARTCHAR oe
ENCODING 339
SWIDTH 798 0
DWIDTH 11 0
BBX 11 6 0 1
BITMAP
08EE802CFB00
6C14E9D42D20
B9006FFEE870
AD001FF20060
5F915CFB2280
06DEB19EFB20
ENDCHAR
STARTCHAR circumflex
ENCODING 710
SWIDTH 483 0
DWIDTH 7 0
BBX 6 3 0 10
BITMAP
002B10
0197D3
16005D
ENDCHAR
STARTCHAR caron
ENCODING 711
SWIDTH 428 0
DWIDTH 6 0
BBX 6 4 0 10
BITMAP
110031
1A1440
02D900
008200
ENDCHAR
STARTCHAR ring
ENCODING 730
SWIDTH 330 0
DWIDTH 5 0
BBX 4 4 0 11
BITMAP
0AE6
381A
3819
0BE5
ENDCHAR
STARTCHAR tilde
ENCODING 732
SWIDTH 433 0
DWIDTH 6 0
BBX 6 2 0 10
BITMAP
0BD524
326DD1
ENDCHAR
STARTCHAR mu.dup1
ENCODING 956
SWIDTH 634 0
DWIDTH 9 0
BBX 9 14 0 -6
BITMAP
0100000000
6D00011000
6C001E6000
6E000C7000
6F300B9000
5FB23DB150
5F6EC3E270
4F10006E70
4F20000000
3F40000000
3F50000000
2F70000000
1F80000000
0100000000
ENDCHAR
STARTCHAR endash
ENCODING 8211
SWIDTH 436 0
DWIDTH 6 0
BBX 6 2 0 3
BITMAP
120010
2BEFD4
ENDCHAR
STARTCHAR emdash
ENCODING 8212
SWIDTH 651 0
DWIDTH 9 0
BBX 9 2 0 2
BITMAP
02579CEF40
1654321000
ENDCHAR
STARTCHAR quoteleft
ENCODING 8216
SWIDTH 287 0
DWIDTH 4 0
BBX 4 5 0 7
BITMAP
0171
0B40
2F90
4FF0
1DB0
ENDCHAR
STARTCHAR quoteright
ENCODING 8217
SWIDTH 291 0
DWIDTH 4 0
BBX 4 5 0 6
BITMAP
2EB0
3FF5
06F5
00A1
0350
ENDCHAR
STARTCHAR quotesinglbase
ENCODING 8218
SWIDTH 272 0
DWIDTH 4 0
BBX 4 5 0 -3
BITMAP
1DB0
2FF1
05E0
0190
0510
ENDCHAR
STARTCHAR quotedblleft
ENCODING 8220
SWIDTH 445 0
DWIDTH 6 0
BBX 6 5 0 6
BITMAP
006200
085071
1F55D1
4FD4E6
1DB000
ENDCHAR
STARTCHAR quotedblright
ENCODING 8221
SWIDTH 444 0
DWIDTH 6 0
BBX 6 5 0 7
BITMAP
2E96E4
2FE8F7
06D1E5
0281A0
062710
ENDCHAR
STARTCHAR quotedblbase
ENCODING 8222
SWIDTH 482 0
DWIDTH 7 0
BBX 6 6 0 -4
BITMAP
1DC000
3FF5DB
07F5FF
00B07C
025065
000170
ENDCHAR
STARTCHAR bullet
ENCODING 8226
SWIDTH 351 0
DWIDTH 5 0
BBX 5 3 0 4
BITMAP
0AEA00
4FFF20
1CFA00
ENDCHAR
STARTCHAR guilsinglleft
ENCODING 8249
SWIDTH 465 0
DWIDTH 7 0
BBX 6 9 0 -1
BITMAP
000020
000170
000A10
00A800
1CF200
07FA00
003E50
0002C1
000027
ENDCHAR
STARTCHAR guilsinglright
ENCODING 8250
SWIDTH 449 0
DWIDTH 6 0
BBX 6 10 0 -2
BITMAP
030000
082000
01C200
006E60
002FE4
00AD20
04D100
0B3000
270000
100000
ENDCHAR
STARTCHAR fraction
ENCODING 8260
SWIDTH 406 0
DWIDTH 6 0
BBX 10 13 -2 0
BITMAP
0000000043
0000000180
0000000910
0000007400
0000038000
00001A0000
0000920000
0006500000
0029000000
0091000000
0730000000
3700000000
8000000000
ENDCHAR
STARTCHAR foursuperior
ENCODING 8308
SWIDTH 473 0
DWIDTH 7 0
BBX 7 9 0 4
BITMAP
00060000
005A0000
00AC0000
044D0200
031F4600
7CEFF700
121E9100
00DFEF40
00310000
ENDCHAR
STARTCHAR Euro
ENCODING 8364
SWIDTH 799 0
DWIDTH 11 0
BBX 12 12 0 -1
BITMAP
000000000004
00004BEEC655
0007FC303DE0
004FC00003A0
00CF40000060
02FF55510000
5AFD46300000
29FE50000000
85FE00000500
00BF50000600
002EE5129200
0002AEEB3000
ENDCHAR
STARTCHAR minus
ENCODING 8722
SWIDTH 436 0
DWIDTH 6 0
BBX 6 2 0 3
BITMAP
120010
2BEFD4
ENDCHAR
STARTCHAR f_f
ENCODING 64256
SWIDTH 467 0
DWIDTH 7 0
BBX 9 21 0 -5
BITMAP
001BE70000
0072E90000
01702BE900
0450B47F20
073391EF30
092662DB00
0A28500000
0B39620000
0B9DEC3000
4FAB700000
1B57A00000
0A64D00000
0981F20000
08B0D70000
07D0AE2000
06F18FE300
04F4C61000
03F7100000
02FB000000
05FF400000
8EEFF60000
ENDCHAR
STARTCHAR .notdef
ENCODING -1
SWIDTH 270 0
DWIDTH 4 0
BBX 4 9 0 0
BITMAP
7FF4
1001
1001
1001
1001
1001
1001
1001
7FF4
ENDCHAR
STARTCHAR .null
ENCODING -1
SWIDTH 0 0
DWIDTH 0 0
BBX 1 1 0 0
BITMAP
00
ENDCHAR
STARTCHAR nonmarkingreturn
ENCODING -1
SWIDTH 270 0
DWIDTH 4 0
BBX 1 1 0 0
BITMAP
00
ENDCHAR
STARTCHAR dieresis.case
ENCODING -1
SWIDTH 393 0
DWIDTH 6 0
BBX 5 2 0 11
BITMAP
2E68A0
2E5990
ENDCHAR
STARTCHAR o.cmp
ENCODING -1
SWIDTH 400 0
DWIDTH 6 0
BBX 10 11 0 2
BITMAP
00000005E2
00000002D5
0000000063
0000000080
0000000640
0000039700
1AACEA3000
9E24C10000
C903F60000
9B19F40000
1BED600000
ENDCHAR
STARTCHAR n_n
ENCODING -1
SWIDTH 1024 0
DWIDTH 14 0
BBX 15 9 0 -1
BITMAP
17A0AEA000000000
CED626F6FF000000
07F500E85F5DD400
04F400D85F71CC00
00F300D65F10AC00
00C400E46F11E900
00B702F5DEFFFC00
0CFF9FF730001510
0101102A10000000
ENDCHAR
STARTCHAR a_a
ENCODING -1
SWIDTH 911 0
DWIDTH 13 0
BBX 14 9 0 0
BITMAP
0000002CEC3000
000000B919D000
1BEA00AC02F200
781B400001F400
6B0772BEEAF500
19EF8ACE25F500
8E47ABB536F600
BD18F6CFC4F923
5ED38ED3008EC0
ENDCHAR
STARTCHAR t_h
ENCODING -1
SWIDTH 854 0
DWIDTH 12 0
BBX 13 18 -1 -3
BITMAP
0000027B000000
0000EFFB000000
000000AA000000
00006189000000
0029D098000000
2CFFFFFF700000
011F80B7000000
001F50C6000000
003F30D6AED700
003F30EC417F40
002F40F76D1F80
000E81F42E2E90
0007E8F45B0F80
00007DFEA12F50
00001AFA105F20
0000EFFFC2CF00
000000005FFF40
000000000005B0
ENDCHAR
STARTCHAR s_s
ENCODING -1
SWIDTH 654 0
DWIDTH 9 0
BBX 10 13 -1 -2
BITMAP
0000002005
0009ECAEE8
002F28F537
000E11E204
0007A0A700
0000A93E20
00000D7AB0
052005E3F5
0A44E6F1EB
169A5AC0CE
001CEB20EC
00028118F6
00005CED60
ENDCHAR
STARTCHAR t_t
ENCODING -1
SWIDTH 569 0
DWIDTH 8 0
BBX 8 13 0 -1
BITMAP
0000E500
0036F441
05EAFE20
DFFEF200
0AE5D000
0AB5D000
0BA4D000
0BA2F1BA
0AA0C92B
09C03CE7
04F10000
00C919E1
001AEE80
ENDCHAR
STARTCHAR e_e
ENCODING -1
SWIDTH 782 0
DWIDTH 11 0
BBX 11 8 0 0
BITMAP
07ED42BEC200
6D249CA17900
D82A8F302A00
EFC54F206700
BE102F51C250
3EC41ADC4070
02AEFDF91380
0000004CEB10
ENDCHAR
STARTCHAR o_o
ENCODING -1
SWIDTH 751 0
DWIDTH 11 0
BBX 15 12 0 1
BITMAP
0000000000007E20
0000000000003E40
0000000000000820
0000000000000800
0000000000007400
04CEA100014B7000
2F815CD5DEB40000
9D001E605A000000
BA005F503F300000
BA003F41AF100000
5E41ACDFC4000000
07DEA10000000000
ENDCHAR
STARTCHAR l_l
ENCODING -1
SWIDTH 573 0
DWIDTH 8 0
BBX 10 15 -1 -3
BITMAP
039703A400
4AF8AFF400
00E808F400
00E806F400
00E804F400
00E803F400
00D803F500
00E902F600
00E902F700
00EA02F900
00FA02FD10
01FB19EEE1
9FFD000000
025A800000
0000100000
ENDCHAR
STARTCHAR z_z
ENCODING -1
SWIDTH 875 0
DWIDTH 12 0
BBX 14 10 -1 -1
BITMAP
00006FFFF50000
00000004E10000
01FFFF89800000
0131EC2F200000
0007F29B000000
002E72F5035000
00AB09FFFF55E3
05E200000005F5
1EEEFEC84104E1
00001369CEEB30
ENDCHAR
STARTCHAR j_j
ENCODING -1
SWIDTH 577 0
DWIDTH 8 0
BBX 10 19 -2 -9
BITMAP
000001DA00
0000B9DA00
0000B81520
001017FF90
004DFF9FD0
0001CF89F2
00003FA3F5
00000DB0E7
000009C0B9
000007D08A
000006C06B
000006B05C
1BE407904C
6FD309604B
85000D1049
5912A80066
08EEAA2082
00005FA280
00001BE900
ENDCHAR
STARTCHAR f_b
ENCODING -1
SWIDTH 731 0
DWIDTH 10 0
BBX 12 18 -1 -2
BITMAP
00009EC10000
000781870000
000C03C80000
002A2FF40000
0059059A0000
008A1FFB0000
39FE54BB0000
45CB007B0000
009B006B0000
009C006B0000
009C006B0000
009D006DDE80
008D006C18F2
008E007B19F2
008F02EFFF80
008F34201000
00BFF9000000
065100000000
ENDCHAR
STARTCHAR f_k
ENCODING -1
SWIDTH 708 0
DWIDTH 10 0
BBX 10 18 0 -3
BITMAP
0000200000
002A800000
0AFFFE9000
014F87F300
00CB8DC100
04B9800000
0788900000
4E78A24000
1A68A07F90
0A67B2B200
0A57DD3000
0B57EC6021
0B57D7C006
0B56F1E819
0D66F13DE5
8F97F62000
02CFFFF200
0121011000
ENDCHAR
STARTCHAR f_h
ENCODING -1
SWIDTH 873 0
DWIDTH 12 0
BBX 14 18 -1 -2
BITMAP
00008EC1000000
00057187000000
000A03C8000000
001A2FF5400000
0049058D500000
006B0EFF300000
00AFD71F200000
6DFC000F100000
11AB001F000000
009C002E000000
009C003E4DE700
009D004E71AF10
009D006F106F10
008E007D007F20
008F01CC00DFE3
009F5FFF523010
00DFFA02300000
06510000000000
ENDCHAR
ENDFONT
